<mxfile host="app.diagrams.net" modified="2024-02-02T19:22:31.798Z" agent="Mozilla/5.0 (Windows NT 10.0; Win64; x64) AppleWebKit/537.36 (KHTML, like Gecko) Chrome/121.0.0.0 Safari/537.36" version="22.1.20" etag="IAsn2gSWEKbH7C8qKt7h" type="github">
  <diagram name="Page-1" id="39IPZdBn1KxL83gMQ81g">
    <mxGraphModel>
      <root>
        <mxCell id="0" />
        <mxCell id="1" parent="0" />
        <mxCell id="2" value="cybersecurity Defense in Depth" style="ellipse;aspect=fixed;strokeWidth=2;whiteSpace=wrap;" vertex="1" parent="1">
          <mxGeometry x="304" y="100" width="197" height="197" as="geometry" />
        </mxCell>
        <mxCell id="3" value="" style="rounded=1;absoluteArcSize=1;arcSize=14;whiteSpace=wrap;strokeWidth=2;" vertex="1" parent="1">
          <mxGeometry x="494" y="104" width="20" height="19" as="geometry" />
        </mxCell>
        <mxCell id="4" value="Firewalls" style="rounded=1;absoluteArcSize=1;arcSize=14;whiteSpace=wrap;strokeWidth=2;" vertex="1" parent="1">
          <mxGeometry x="535" y="153" width="85" height="38" as="geometry" />
        </mxCell>
        <mxCell id="5" value="Intrusion Detection Systems" style="rounded=1;absoluteArcSize=1;arcSize=14;whiteSpace=wrap;strokeWidth=2;" vertex="1" parent="1">
          <mxGeometry x="581" y="99" width="220" height="38" as="geometry" />
        </mxCell>
        <mxCell id="6" value="Secure Coding Practices" style="rounded=1;absoluteArcSize=1;arcSize=14;whiteSpace=wrap;strokeWidth=2;" vertex="1" parent="1">
          <mxGeometry x="350" y="15" width="191" height="38" as="geometry" />
        </mxCell>
        <mxCell id="7" value="Encryption" style="rounded=1;absoluteArcSize=1;arcSize=14;whiteSpace=wrap;strokeWidth=2;" vertex="1" parent="1">
          <mxGeometry x="563" y="44" width="97" height="38" as="geometry" />
        </mxCell>
        <mxCell id="8" value="" style="rounded=1;absoluteArcSize=1;arcSize=14;whiteSpace=wrap;strokeWidth=2;" vertex="1" parent="1">
          <mxGeometry x="584" y="240" width="20" height="19" as="geometry" />
        </mxCell>
        <mxCell id="9" value="Security Policies and Procedures" style="rounded=1;absoluteArcSize=1;arcSize=14;whiteSpace=wrap;strokeWidth=2;" vertex="1" parent="1">
          <mxGeometry x="373" y="249" width="168" height="55" as="geometry" />
        </mxCell>
        <mxCell id="10" value="Employee Awareness Training" style="rounded=1;absoluteArcSize=1;arcSize=14;whiteSpace=wrap;strokeWidth=2;" vertex="1" parent="1">
          <mxGeometry x="664" y="178" width="168" height="55" as="geometry" />
        </mxCell>
        <mxCell id="11" value="Incident Response Planning" style="rounded=1;absoluteArcSize=1;arcSize=14;whiteSpace=wrap;strokeWidth=2;" vertex="1" parent="1">
          <mxGeometry x="506" y="318" width="214" height="38" as="geometry" />
        </mxCell>
        <mxCell id="12" value="Access Management" style="rounded=1;absoluteArcSize=1;arcSize=14;whiteSpace=wrap;strokeWidth=2;" vertex="1" parent="1">
          <mxGeometry x="651" y="270" width="164" height="38" as="geometry" />
        </mxCell>
        <mxCell id="13" value="" style="rounded=1;absoluteArcSize=1;arcSize=14;whiteSpace=wrap;strokeWidth=2;" vertex="1" parent="1">
          <mxGeometry x="291" y="282" width="20" height="19" as="geometry" />
        </mxCell>
        <mxCell id="14" value="Surveillance Systems" style="rounded=1;absoluteArcSize=1;arcSize=14;whiteSpace=wrap;strokeWidth=2;" vertex="1" parent="1">
          <mxGeometry x="108" y="231" width="169" height="38" as="geometry" />
        </mxCell>
        <mxCell id="15" value="Secure Data Centers" style="rounded=1;absoluteArcSize=1;arcSize=14;whiteSpace=wrap;strokeWidth=2;" vertex="1" parent="1">
          <mxGeometry x="58" y="294" width="166" height="38" as="geometry" />
        </mxCell>
        <mxCell id="16" value="Access controls" style="rounded=1;absoluteArcSize=1;arcSize=14;whiteSpace=wrap;strokeWidth=2;" vertex="1" parent="1">
          <mxGeometry x="337" y="327" width="131" height="38" as="geometry" />
        </mxCell>
        <mxCell id="17" value="Environmental Monitoring" style="rounded=1;absoluteArcSize=1;arcSize=14;whiteSpace=wrap;strokeWidth=2;" vertex="1" parent="1">
          <mxGeometry x="113" y="350" width="204" height="38" as="geometry" />
        </mxCell>
        <mxCell id="18" value="" style="rounded=1;absoluteArcSize=1;arcSize=14;whiteSpace=wrap;strokeWidth=2;" vertex="1" parent="1">
          <mxGeometry x="243" y="129" width="20" height="19" as="geometry" />
        </mxCell>
        <mxCell id="19" value="Risk Assessments" style="rounded=1;absoluteArcSize=1;arcSize=14;whiteSpace=wrap;strokeWidth=2;" vertex="1" parent="1">
          <mxGeometry x="175" y="32" width="141" height="38" as="geometry" />
        </mxCell>
        <mxCell id="20" value="Security Audits" style="rounded=1;absoluteArcSize=1;arcSize=14;whiteSpace=wrap;strokeWidth=2;" vertex="1" parent="1">
          <mxGeometry x="313" y="86" width="127" height="38" as="geometry" />
        </mxCell>
        <mxCell id="21" value="Compliance Policies" style="rounded=1;absoluteArcSize=1;arcSize=14;whiteSpace=wrap;strokeWidth=2;" vertex="1" parent="1">
          <mxGeometry x="63" y="163" width="163" height="38" as="geometry" />
        </mxCell>
        <mxCell id="22" value="Business Continuity Planning" style="rounded=1;absoluteArcSize=1;arcSize=14;whiteSpace=wrap;strokeWidth=2;" vertex="1" parent="1">
          <mxGeometry x="15" y="79" width="159" height="55" as="geometry" />
        </mxCell>
        <mxCell id="23" style="endArrow=none" edge="1" parent="1" source="2" target="3">
          <mxGeometry relative="1" as="geometry" />
        </mxCell>
        <mxCell id="24" style="endArrow=none" edge="1" parent="1" source="2" target="8">
          <mxGeometry relative="1" as="geometry" />
        </mxCell>
        <mxCell id="25" style="endArrow=none" edge="1" parent="1" source="2" target="13">
          <mxGeometry relative="1" as="geometry" />
        </mxCell>
        <mxCell id="26" style="endArrow=none" edge="1" parent="1" source="2" target="18">
          <mxGeometry relative="1" as="geometry" />
        </mxCell>
        <mxCell id="27" style="endArrow=none" edge="1" parent="1" source="3" target="4">
          <mxGeometry relative="1" as="geometry" />
        </mxCell>
        <mxCell id="28" style="endArrow=none" edge="1" parent="1" source="3" target="5">
          <mxGeometry relative="1" as="geometry" />
        </mxCell>
        <mxCell id="29" style="endArrow=none" edge="1" parent="1" source="3" target="6">
          <mxGeometry relative="1" as="geometry" />
        </mxCell>
        <mxCell id="30" style="endArrow=none" edge="1" parent="1" source="3" target="7">
          <mxGeometry relative="1" as="geometry" />
        </mxCell>
        <mxCell id="31" style="endArrow=none" edge="1" parent="1" source="8" target="9">
          <mxGeometry relative="1" as="geometry" />
        </mxCell>
        <mxCell id="32" style="endArrow=none" edge="1" parent="1" source="8" target="10">
          <mxGeometry relative="1" as="geometry" />
        </mxCell>
        <mxCell id="33" style="endArrow=none" edge="1" parent="1" source="8" target="11">
          <mxGeometry relative="1" as="geometry" />
        </mxCell>
        <mxCell id="34" style="endArrow=none" edge="1" parent="1" source="8" target="12">
          <mxGeometry relative="1" as="geometry" />
        </mxCell>
        <mxCell id="35" style="endArrow=none" edge="1" parent="1" source="13" target="14">
          <mxGeometry relative="1" as="geometry" />
        </mxCell>
        <mxCell id="36" style="endArrow=none" edge="1" parent="1" source="13" target="15">
          <mxGeometry relative="1" as="geometry" />
        </mxCell>
        <mxCell id="37" style="endArrow=none" edge="1" parent="1" source="13" target="16">
          <mxGeometry relative="1" as="geometry" />
        </mxCell>
        <mxCell id="38" style="endArrow=none" edge="1" parent="1" source="13" target="17">
          <mxGeometry relative="1" as="geometry" />
        </mxCell>
        <mxCell id="39" style="endArrow=none" edge="1" parent="1" source="18" target="19">
          <mxGeometry relative="1" as="geometry" />
        </mxCell>
        <mxCell id="40" style="endArrow=none" edge="1" parent="1" source="18" target="20">
          <mxGeometry relative="1" as="geometry" />
        </mxCell>
        <mxCell id="41" style="endArrow=none" edge="1" parent="1" source="18" target="21">
          <mxGeometry relative="1" as="geometry" />
        </mxCell>
        <mxCell id="42" style="endArrow=none" edge="1" parent="1" source="18" target="22">
          <mxGeometry relative="1" as="geometry" />
        </mxCell>
      </root>
    </mxGraphModel>
  </diagram>
</mxfile>
